<?xml version="1.0" standalone="no"?>
<!DOCTYPE svg PUBLIC "-//W3C//DTD SVG 20010904//EN"
 "http://www.w3.org/TR/2001/REC-SVG-20010904/DTD/svg10.dtd">
<svg version="1.0" xmlns="http://www.w3.org/2000/svg"
 width="481.000000pt" height="519.000000pt" viewBox="0 0 481.000000 519.000000"
 preserveAspectRatio="xMidYMid meet">

<g transform="translate(0.000000,519.000000) scale(0.100000,-0.100000)"
fill="#ff0100" stroke="none">
<path d="M1432 4779 c-5 -19 -15 -54 -21 -79 -13 -58 -59 -246 -115 -480 -24
-102 -59 -246 -76 -320 -18 -74 -66 -272 -106 -440 -41 -168 -92 -381 -115
-475 -22 -93 -58 -242 -79 -330 -21 -88 -49 -203 -61 -255 -12 -52 -41 -174
-64 -270 -24 -96 -53 -215 -65 -265 -12 -49 -39 -162 -60 -250 -46 -187 -100
-412 -130 -540 -12 -49 -44 -182 -71 -295 -27 -113 -55 -227 -61 -255 -6 -27
-24 -99 -39 -160 -15 -60 -27 -110 -26 -111 1 -1 45 29 97 68 52 38 129 93
170 123 41 30 201 147 355 260 154 113 314 231 355 261 99 72 182 132 402 293
101 74 233 171 293 215 61 44 169 123 240 176 72 53 179 132 239 176 60 43
199 145 310 226 110 81 204 148 208 148 7 0 113 -86 508 -410 84 -69 166 -136
184 -150 32 -25 350 -286 464 -381 34 -28 64 -50 67 -48 2 3 -30 59 -72 124
-42 66 -118 185 -169 265 -86 135 -151 238 -417 660 -58 91 -128 201 -156 245
-28 44 -51 86 -51 92 0 11 140 184 244 303 17 20 51 60 76 90 25 29 62 74 84
99 21 25 45 55 55 66 9 11 77 92 151 180 74 88 142 169 151 180 10 11 59 70
110 130 139 165 130 152 84 125 -55 -32 -265 -153 -480 -275 -99 -56 -212
-120 -252 -143 -39 -23 -89 -51 -110 -63 -21 -12 -120 -68 -220 -125 -100 -57
-188 -104 -196 -104 -8 0 -31 19 -53 43 -21 23 -88 96 -149 162 -60 66 -129
140 -152 165 -23 25 -50 54 -60 66 -20 23 -186 205 -218 238 -11 12 -65 71
-120 131 -55 61 -107 117 -115 125 -8 8 -37 40 -64 70 -27 30 -75 82 -106 115
-54 58 -196 212 -399 435 -53 57 -117 127 -142 154 l-46 49 -11 -34z m624
-1568 c28 -25 142 -125 252 -221 111 -96 202 -180 202 -186 0 -6 -200 -137
-445 -290 -245 -154 -464 -291 -488 -306 -56 -37 -67 -42 -74 -34 -6 6 8 85
48 266 19 85 26 121 54 260 8 41 29 140 46 220 17 80 36 168 41 195 5 28 13
68 18 90 4 22 16 78 25 125 30 149 17 147 152 29 65 -56 141 -123 169 -148z"/>
</g>
</svg>